<svg xmlns="http://www.w3.org/2000/svg" width="259.53" height="259.52" viewBox="0 0 259.53 259.52"><path d="M252.9,44.28h20.27V64.56c4,0,7.62,0,11.24,0,18.12.06,31.33,13.23,31.33,31.36q0,88.3,0,176.61a33.87,33.87,0,0,1-.77,7.52c-3.34,14.42-15.39,23.74-30.62,23.75H87.7c-.68,0-1.35,0-2,0a30.3,30.3,0,0,1-23.26-12.06c-3.43-4.35-5-9.46-6.18-14.77V91.42a5.34,5.34,0,0,0,.38-.93c3.61-16.76,14.93-25.93,32-25.93H98.81V44.28h20.27V64.4H252.9ZM76.51,139.68v131.8c0,8.22,3.84,12,12.1,12H283.48c8.1,0,12-3.86,12-11.91V139.68ZM253,85H119V105H98.72V84.83c-4.08,0-7.87,0-11.66,0-6.27.1-10.47,4.28-10.54,10.56-.06,6,0,12,0,18v5.73H295.44c0-8.36.12-16.55-.05-24.73A9.48,9.48,0,0,0,287,85.06c-4.49-.41-9.05-.09-13.85-.09v20H253Z" transform="translate(-56.23 -44.28)"/><path d="M114.9,161V181h-20V161Z" transform="translate(-56.23 -44.28)"/><path d="M155.43,181H135.5V161h19.93Z" transform="translate(-56.23 -44.28)"/><path d="M176,181V161h20v20Z" transform="translate(-56.23 -44.28)"/><path d="M216.5,180.94V161h20.05v19.92Z" transform="translate(-56.23 -44.28)"/><path d="M257.05,181V161h20v20Z" transform="translate(-56.23 -44.28)"/><path d="M114.85,221.58h-20v-20h20Z" transform="translate(-56.23 -44.28)"/><path d="M155.47,201.6v20h-20v-20Z" transform="translate(-56.23 -44.28)"/><path d="M176,201.53h20v20H176Z" transform="translate(-56.23 -44.28)"/><path d="M216.59,201.51h19.94v20.06H216.59Z" transform="translate(-56.23 -44.28)"/><path d="M257.12,201.54h20v20h-20Z" transform="translate(-56.23 -44.28)"/><path d="M94.86,262.05V242.11h20v19.94Z" transform="translate(-56.23 -44.28)"/><path d="M135.49,242.07h19.95v20H135.49Z" transform="translate(-56.23 -44.28)"/><path d="M196,262.13H176v-20h20Z" transform="translate(-56.23 -44.28)"/><path d="M216.62,242h19.87v20H216.62Z" transform="translate(-56.23 -44.28)"/></svg>