<svg xmlns="http://www.w3.org/2000/svg" width="383.27" height="383.42" viewBox="0 0 383.27 383.42"><path d="M732.29,579.89H715.07c-1.09-.22-2.17-.54-3.27-.65A108.83,108.83,0,0,1,676.94,570c-44.35-20.26-70.07-62.39-68.08-111.52.11-2.71-.58-4.22-2.92-5.66a71.26,71.26,0,0,1-23.58-23.58c-1.44-2.34-3-3-5.67-2.9-55.14,2.4-102.51-31.59-117.23-84.28-2-7.13-2.82-14.59-4.19-21.9V302.92c.69-4.28,1.3-8.58,2.1-12.84,14.78-79.24,106.32-119.3,174-75.67,37.41,24.1,55,59.28,53.63,103.78-.06,2-.21,3.67,2,5a76.19,76.19,0,0,1,25,24.76,5.85,5.85,0,0,0,4.08,2.12c7.7.45,15.51,0,23.13,1,60.56,7.88,104.37,63.2,98.7,124.33a114.4,114.4,0,0,1-83.1,100C747.57,577.5,739.85,578.43,732.29,579.89ZM710.74,388.17a63.81,63.81,0,1,0-63.54,63.89A63.62,63.62,0,0,0,710.74,388.17ZM518.9,273.42c1.36-32.47,26.19-50.72,50-51.24a49.73,49.73,0,0,1,33.87,11.73c12.32,10.26,18.2,23.71,18.72,39.57,9,2,15.39,6.91,18,15.78s0,16.52-6.92,23.67a80.49,80.49,0,0,1,39.56,2.92c2.37-40.22-22-85.26-69.53-101.13A101.9,101.9,0,0,0,483,258.38c-24.88,40.91-16.15,89.11,8,117,2.36-2.57,4.57-5.3,7.12-7.65,1.89-1.74,2.37-3.19,1.51-5.77a44.76,44.76,0,0,1,.92-32.18c2.3-5.52,5.79-10.54,8.78-15.84C493.31,301.78,498.7,277.73,518.9,273.42ZM723.66,381.7c2.88.3,5.77.4,8.57.93,23.75,4.44,39.88,22.26,42.26,46.81.26,2.7,1,3.9,3.81,4.8,8.72,2.76,14.09,9,15.27,18.06,1.24,9.52-2.48,17.07-10.74,22.17-3.75,2.32-12.32,11.15-14.6,15.18-1,1.74-2.12,3.38-3.16,5.08-.48.77-.9,1.57-1.46,2.56A58.53,58.53,0,0,1,788,506.36a56.13,56.13,0,0,1,17.76,18.84A101.62,101.62,0,0,0,812,413.44c-23.47-40.36-65.7-52.77-92.3-50.3C721,369.2,722.28,375.26,723.66,381.7ZM532.12,285.16c0,7.83-.54,15.58.11,23.23,1.51,18,14,31.65,31.9,34.51,10.64,1.7,20.9.53,28.59-8.61a30.78,30.78,0,0,1,6.4-5.71c3.43-2.28,5.23-5.53,6.7-9.16,4.51-11.16,2.3-22.78,2.83-34.25-14.08-3.21-27.55-6.77-38.41-16.43C559.32,278.51,545.79,281.94,532.12,285.16ZM737,436.06c-4.83,2.32-9.19,5.29-14,6.52-7.18,1.83-14.68,2.44-22,3.57-1.58.24-3.37.12-4.72.82-10,5.18-11.54,8-10.94,19.45,1,19.83,15.78,34.95,35.7,36.65a37.73,37.73,0,0,0,40-30.38c1.24-6.27.77-12.9.93-19.36a2.73,2.73,0,0,0-1.6-2A38.41,38.41,0,0,1,737,436.06Zm-95.67,89.28c9.81-16.28,24.09-25.18,42.64-28.23-8.67-10.9-11.9-23-11.57-36.59-17.21,5.84-33.95,5.64-50.89.11C620.73,484.72,627.4,505.9,641.32,525.34ZM499.9,385.16c20.52,21.42,54.56,30.83,73.9,28.06l-4.22-24.78a1.33,1.33,0,0,0-.56-.19c-11.83-1.92-17.89-9-17.92-20.94V356.82C530,359.52,513.16,368.81,499.9,385.16Zm179,171.52A97,97,0,0,0,717,566.61v-29.9c-2.87.53-5.44,1-8,1.47-13.15,2.49-23.59-6-23.76-19.43,0-2.81,0-5.61,0-8.87-3.06.73-5.53,1.12-7.86,1.92-11.3,3.86-20.36,10.43-25.37,21.64-.52,1.15-.76,3.32-.11,3.94,4.28,4.07,8.84,7.84,13.57,11.93.48-1.15.66-1.46.74-1.79,1-4.24,3.25-6.14,6.88-5.84,3.46.28,5.67,2.86,5.84,7C679,551.15,678.93,553.63,678.93,556.68ZM781.4,549.5c4.47-3.78,8.35-7.25,12.44-10.44,2.51-1.95,2.41-3.9,1.16-6.45-4-8.18-10.4-13.87-18.33-18a35.67,35.67,0,0,0-14.75-4.34c.28,9,.7,17.76-6.94,24.08s-16.13,4.23-24.66,2.25v29.86c11.34.08,30.26-5.07,38-10.09,0-2.37,0-4.47,0-6.56,0-5,2-7.82,5.8-8.14S780.37,543.61,781.4,549.5ZM608.51,271.92c-1.16-14.9-7.71-25.82-20.32-32.41-14.34-7.49-28.49-6.16-41.41,3.6-9.28,7-14,16.59-14.66,28.83,9.94-2.4,19-4.94,26.89-10.53,2.71-1.93,4.61-4.34,5-7.94a6.27,6.27,0,0,1,6.29-5.76c3.15,0,5.49,2.37,6.37,5.77.54,2.09,1.23,4.54,2.71,5.91C587.42,266.84,597.71,269.24,608.51,271.92Zm100.72,161c3.74-.84,6.57-1.28,9.27-2.13,6-1.89,11.39-4.38,11.81-12.07a5,5,0,0,1,5.47-4.65c2.16.22,4.37,1.83,6.12,3.33,1,.84,1.06,2.72,1.62,4.1a28.94,28.94,0,0,0,18.1,17c2.92-23.64-17.11-46.16-38.35-43.31A79.61,79.61,0,0,1,709.23,432.87Zm-187.61-112c-10.48,10.32-14.95,27.26-10,35.35l27.07-10.92A52.54,52.54,0,0,1,521.62,320.88ZM698,509.91c0,2.7,0,5.38,0,8.06a14,14,0,0,0,.18,2.59,6.31,6.31,0,0,0,7.33,5.3c3.88-.6,7.7-1.54,11.61-2.34v-7.28Zm32.22,13.64c3.91.8,7.64,1.7,11.43,2.3,3.58.58,6.8-1.45,7.18-4.89a99.44,99.44,0,0,0,.09-10.91l-18.7,6.12ZM563.92,356.15c0,4.73-.17,9.18.06,13.6a5.64,5.64,0,0,0,4.83,5.42,3.37,3.37,0,0,0,2.89-1.56c1.85-5.74,3.42-11.57,5.1-17.46Zm57.64-51.74c4.82-2.52,6.61-5.61,6-10.11a8.83,8.83,0,0,0-6-7.49Zm-102.82.06V286.94c-4,1.75-5.7,4.54-5.86,8.31C512.69,299.41,514.64,302.34,518.74,304.47ZM775,463.77c4.35-1.78,6.32-5,6-9.37a7.78,7.78,0,0,0-6-7.34Z" transform="translate(-455.27 -196.47)" fill="#fff"/><path d="M627.62,405l44.53-44.59c4.63-4.63,8.07-5.3,11.19-2.19s2.34,6.71-2.15,11.2q-23.66,23.64-47.31,47.29c-4.68,4.67-7.55,4.65-12.27,0-3.53-3.52-7.1-7-10.56-10.59-2.92-3-3.09-6.67-.6-9.31s6.49-2.59,9.63.33c1.27,1.19,2.49,2.43,3.7,3.7S626.13,403.35,627.62,405Z" transform="translate(-455.27 -196.47)" fill="#fff"/></svg>