<svg xmlns="http://www.w3.org/2000/svg" width="385.45" height="385.52" viewBox="0 0 385.45 385.52"><path d="M631.35,184.68c4.95,1.23,10,2.13,14.84,3.74,27.82,9.28,47.32,34.63,47.64,63.91.2,18.46,5.15,35.91,8.56,53.69,5.55,28.91,11.83,57.68,17.61,86.54.6,3,1.81,3.6,4.47,3.5,4.26-.17,8.54-.13,12.8,0,13.07.36,22.18,10.37,20.6,23.33-2.27,18.66-5,37.26-7.64,55.88q-5.16,36.87-10.4,73.73c-1.57,10.94-7.84,18.78-16.51,20.69a31.38,31.38,0,0,1-6.72.51q-92.42,0-184.84,0c-12.82,0-21.06-6.59-23.16-19.42-2.54-15.46-4.55-31-6.73-46.52-3.91-27.8-7.7-55.62-11.7-83.41-1.94-13.45,7-24.46,20.57-24.81,5.38-.13,10.77,0,16.49,0,1.82-8.75,3.63-17.29,5.37-25.85,6.91-33.88,13.88-67.75,20.61-101.67.86-4.36.53-9,.57-13.48a70.78,70.78,0,0,1,54.47-68.53c2.91-.69,5.86-1.21,8.79-1.81ZM624,408.06H539c-9.28,0-18.56-.08-27.84,0-6.32.08-10,4.51-9.13,10.61.57,4,1.17,7.93,1.72,11.9q6.19,44.31,12.37,88.62c1.39,9.92,2.48,19.91,4.44,29.73,1.65,8.28,5.57,9.28,11.39,9.27q92.2-.19,184.41-.08c6.63,0,9.26-1.94,11-8.36a53.06,53.06,0,0,0,1.12-6.29q5.1-36.29,10.18-72.59,3.65-26.07,7.27-52.13c.45-3.17.2-6.42-2.59-8.11a16.93,16.93,0,0,0-8.29-2.5C698.05,408,661,408.06,624,408.06ZM565.83,274c0,4.16,0,7.89,0,11.62.34,23.46,9.43,43.16,26.45,59,17.26,16,38.33,18.35,56.33,5.43,25.63-18.39,35.32-44.38,33.31-75.73-22.6,1.07-42.35-4.52-56.34-23.84C610.69,270.93,589.82,275.69,565.83,274Zm.08-11.78c5.06,0,9.83.34,14.52-.06,18.19-1.57,32.32-9.16,39.61-27,.77-1.88,3.43-3.7,5.51-4.15,2.78-.59,4.74,1.52,5.87,4.25,7.94,19.12,30,30.72,50.32,26.54,3.08-20.46-7.1-43.16-25.46-55.1-19.83-12.9-40.7-13.9-61.17-2C573.66,217.15,564.76,236.79,565.91,262.2ZM708.49,396c-5.86-28.67-11.59-56.67-17.53-85.72-.67,1.52-.88,1.92-1,2.35-5.91,17.35-15.41,32.26-29.67,44a4.65,4.65,0,0,0-1.51,3.15c-.11,11.16,0,22.33-.1,33.49,0,2.18.84,2.8,2.89,2.77,6.15-.09,12.3,0,18.44,0Zm-119.23-.25c0-12.32.06-24.35-.09-36.36a5.23,5.23,0,0,0-2-3.25,93.31,93.31,0,0,1-27.5-39.25c-.74-1.95-1.47-3.91-2.55-6.76-5.94,29.07-11.68,57.19-17.49,85.62Zm57.17,0V365.28c-15.06,6.54-29.9,6.59-44.93-.08v30.56Z" transform="translate(-489.9 -184.68)"/><path d="M875.35,368.4c-1,5.15-1.7,10.35-2.87,15.44a107.43,107.43,0,0,1-102.67,83.37,23.23,23.23,0,0,1-2.64,0c-3.33-.31-5.3-2.09-5.59-5.47s1.63-6.21,5-6.34c13.95-.54,21.72-9.66,28.46-20.14,2.49-3.86,4.4-8.09,6.92-12.81-5.55-1.5-10.57-2.92-15.62-4.21-4.25-1.09-6.49-3.93-5.65-7.39s4-5.3,8.26-4.28c5.58,1.35,11.12,2.89,16.69,4.36,3.9-9,8.11-35.61,7-45.37H773.76c-.08,1.58-.2,2.91-.2,4.23,0,8.78,0,17.56,0,26.34a11,11,0,0,1-1,4.7,5.38,5.38,0,0,1-6.35,2.9,5.64,5.64,0,0,1-4.67-6c0-9.16,0-18.32,0-27.47v-4.52c-1.57-.07-2.89-.18-4.22-.18-7.78,0-15.56,0-23.33,0-4.41,0-7.05-2.46-7-6.14.09-3.49,2.7-5.82,6.94-5.85,9-.08,18,0,27.31,0V315.34l-31.53-6.62a65.29,65.29,0,0,1-5.8,7.4c-.71.71-3.07.5-4.26-.11-6.48-3.32-2.49-8.36-1.83-12.81-5.18-4.58-6.14-6.66-4.29-9.75,2.05-3.42,5.07-3.71,8.4-2.36l12.56-21.75c-4.84,2.28-9.31,4.36-13.76,6.51-1.23.6-2.36,1.42-3.57,2.07-3.68,2-7,1.3-8.84-1.8s-.92-6.62,2.89-8.48c8.19-4,16.3-8.52,24.95-11.16,63.71-19.44,129.18,22.75,138.26,88.74.27,2,.61,3.91.92,5.86ZM835,427.54c16.72-17.16,26.29-37.53,28-61.72H825.54a6.73,6.73,0,0,0-.39,1.35,183.54,183.54,0,0,1-7.57,47,3.75,3.75,0,0,0,1.38,3.17C824,420.74,829.28,423.94,835,427.54Zm28-74.24c-1.89-24.4-11.34-44.78-28.1-61.78-5.35,3.39-10.32,6.73-15.5,9.73-2.08,1.2-2.19,2.28-1.73,4.47,2.36,11.39,4.58,22.8,6.57,34.26.75,4.36.76,8.86,1.11,13.32Zm-49.95,0A162.24,162.24,0,0,0,806,308.55l-32.17,6.77v37.95Zm-79.77-56.9c9.3,3.4,18.32,5.77,28,5.86V264.42C746.48,270.66,739.53,282.9,733.31,296.37ZM802,297c-6.77-14-13.49-26.39-28.24-32.51v38.63Zm22.88-13.28.3-1.5-24.3-13.16-.24.82,12.46,21.31Zm-24,165,.49.94,24.84-13.58-13.17-8.37Z" transform="translate(-489.9 -184.68)"/><path d="M622.94,505.41c-13.14-.08-24-10.34-23.84-22.61s11-22.42,24.14-22.34,23.93,10.37,23.83,22.64S636.09,505.49,622.94,505.41Zm.27-12.05c6.56-.05,11.91-4.86,11.8-10.6-.1-5.51-5.53-10.22-11.84-10.25-6.47,0-12,4.81-12,10.47S616.66,493.42,623.21,493.36Z" transform="translate(-489.9 -184.68)"/><path d="M649.61,283.31a15.69,15.69,0,0,1,15.51,13.6c.55,4.15-1.47,7.37-5,8-3.34.56-5.8-1.75-7-5.76-.45-1.46-2.21-2.51-3.37-3.75-1.29,1.27-3.23,2.31-3.75,3.83-1.39,4.09-3.7,6.27-7.06,5.65-3.58-.65-5.43-3.74-4.82-8A15.5,15.5,0,0,1,649.61,283.31Z" transform="translate(-489.9 -184.68)"/><path d="M598.39,283.31c8.46,0,15.67,6.86,15.69,15,0,3.61-2.09,6.21-5.34,6.62a5.89,5.89,0,0,1-6.46-5c-.46-2.42-1-4.55-3.94-4.5-2.76.05-3.28,2.14-3.74,4.35-.77,3.63-3.51,5.64-6.67,5.12s-5.24-3.18-5.11-6.81A15.61,15.61,0,0,1,598.39,283.31Z" transform="translate(-489.9 -184.68)"/><path d="M623.81,342.25A24.51,24.51,0,0,1,608,336.36c-2.85-2.31-3.39-5.63-1.55-8.3,2-2.88,5.36-3.6,8.55-1.27,6.06,4.44,11.83,4.56,17.9,0,3.11-2.33,6.67-1.63,8.62,1.16s1.33,6.14-1.75,8.59C635,340.34,629.66,342.46,623.81,342.25Z" transform="translate(-489.9 -184.68)"/></svg>