<svg xmlns="http://www.w3.org/2000/svg" width="380.35" height="380.38" viewBox="0 0 380.35 380.38"><path d="M786.12,374.21c14,1.83,25.24,8.05,33.37,19.43A45.32,45.32,0,0,1,828,421c-.17,18.13-11.6,38.17-35.91,44.71v3.92c0,18.34-.21,36.69.08,55,.15,9.26-3,16-12.06,19.52,0,8,0,16,0,24,0,5.14-1.33,6.52-6.31,6.53q-16.27,0-32.56,0c-4.58,0-6-1.47-6-6.05,0-7.83,0-15.66,0-23.69H673.53c-.92,2-.79,3.39,1.62,4.62,6.09,3.11,9.05,8.34,9.13,15.17q.06,5.41,0,10.85c0,3.35-1.79,5.08-5.12,5.08q-41.37,0-82.72,0c-3.37,0-5-1.9-5-5.22,0-3.74-.08-7.48,0-11.23.18-6.52,3.11-11.54,8.92-14.51,2.29-1.17,2.89-2.39,1.84-4.78h-61.7v21.59c0,7.45-.72,8.19-8,8.19q-15.35,0-30.69,0c-4.78,0-6.17-1.43-6.18-6.27,0-7.24-.07-14.48,0-21.71a3.34,3.34,0,0,0-2.31-3.61c-6.45-3.07-9.7-8.36-9.7-15.54q0-28.81,0-57.64v-4c-25.35-10.09-37.14-26.07-35.87-48.38C449,395.62,462.93,381,489.63,374v-3.83q0-25.08,0-50.16c.05-38.78,25.84-70,63.94-76.59,8.88-1.53,18.14-1,27.24-1.1,2.56,0,3.61-.73,4.39-3.22a55.13,55.13,0,0,1,105.23-.24c.9,2.87,2.23,3.47,5,3.45,10.84-.09,21.67-.49,32.38,2.08,33.18,8,57.78,38.25,58.25,72.36.24,17.72.06,35.44.07,53.16ZM595.49,485c-1.3-.07-2.28-.15-3.26-.16-5.5-.09-6.38-.9-6.9-6.45-.73-7.82-1.48-15.64-2.15-23.47-.4-4.64-1.82-6-6.62-6-15.34,0-30.69.08-46-.11-2,0-4.81-1-5.62-2.38s0-4.3.94-6c4.81-8.32,6.76-17,5.08-26.57-3.3-18.74-19.68-31.66-39.19-30.82-18.08.77-33.66,16.1-35,34.4a37.59,37.59,0,0,0,29.85,39.66c5.41,1.09,6,1.84,6,7.51q0,30.69,0,61.38c0,7.36,2.47,9.8,9.93,9.8h98.9C599.43,518.47,597.46,501.79,595.49,485Zm78.8,50.75h99.06c7.34,0,9.77-2.49,9.77-10q0-30.87,0-61.74c0-5,.8-6,5.8-6.94,16.79-3.32,29.5-18.09,30.1-35a37.43,37.43,0,0,0-66.26-25.54c-10.27,12.35-11.34,29.52-2.94,43.68,1,1.72,1.91,4.72,1.09,6-1,1.52-3.84,2.51-5.91,2.54-15.21.2-30.43.1-45.64.11-5,0-6.42,1.36-6.81,6.24-.54,6.83-1.06,13.67-1.82,20.48-.79,7.14.95,9.41-9.65,9.34-.2,0-.41.23-.88.52C678.26,502,676.3,518.63,674.29,535.76Zm32.8-124.84c.4,5.17,1.3,10,1,14.8s-1.89,9.39-2.87,13.89h34.06c-6-14.71-5.6-28.88,2.19-42.39s20.11-21,35.52-23.12c0-20.43.49-40.52-.26-60.57a59.57,59.57,0,0,0-5.49-21.93c-14.6-32-43.14-43.57-77.77-40a4.78,4.78,0,0,0-.22,1c0,15,0,29.94.16,44.91a6,6,0,0,0,2.45,4c8,5.74,13.26,13.3,14.58,23.05,2.94,21.61,5.61,43.27,8.22,64.93C720.06,401.17,717.34,405.92,707.09,410.92ZM582.47,251.22c-5.5,0-10.6,0-15.69,0-38.37.13-68.06,29.78-68.16,68.1,0,17.09,0,34.18,0,51.28v3.49c15.73,2.17,27.92,9.62,35.77,23.3s8,27.84,2.13,42.35h34.85c-4.83-9.39-4.6-18.94-2.21-28.64-1.39-.65-2.52-1.14-3.61-1.7a16.22,16.22,0,0,1-8.81-16.4c2.73-22.27,5.56-44.53,8.33-66.8,1.33-10.66,6.49-18.92,15.33-25a4.64,4.64,0,0,0,2-3.11C582.51,282.63,582.47,267.18,582.47,251.22Zm98.6,140.68c.08-1,.22-2.11.22-3.17q0-25.26,0-50.53c0-6.38-2.73-9.1-9.13-9.1q-34.24,0-68.49,0c-6.6,0-9.21,2.67-9.22,9.38q0,25.06,0,50.15c0,1.07.13,2.14.21,3.27Zm3.22-95.52c0-8.88.09-17.23,0-25.58-.11-7.6.22-15.28-.8-22.77-3-21.95-23-38.72-45.53-38.74s-43.12,16.63-45.52,38.61c-1.61,14.68-.73,29.64-1,44.47,0,1.2,0,2.4,0,4l16.86-4.85c-2-4-4.09-7.59-5.63-11.37-3.25-8-2.22-16.47-2.13-24.79,0-2.77,2.07-4.13,4.83-4.15,4.37,0,8.73-.09,13.1,0,9.54.19,16.84-3.56,21.79-11.86,2.34-3.91,6.31-4,8.6-.12,4.76,8,11.71,11.92,21,12,3.87,0,5.33,1.61,5.46,5.49.4,12.22.32,24.33-8.57,34.61Zm20.31,53.5c-.9-7.36-1.74-14.5-2.65-21.63q-2.37-18.57-20.5-23.32c-6.26-1.65-12.41-3.75-18.71-5.21a10.63,10.63,0,0,0-6.67.77c-12.28,6.19-24.35,6.2-36.57-.13a9.32,9.32,0,0,0-6-.82c-7.48,1.88-15,3.91-22.26,6.37-9.69,3.27-15.41,10.21-17.11,20.33-.51,3.07-.9,6.17-1.28,9.26-.58,4.76-1.11,9.51-1.66,14.28h14.26c0-4.14,0-8,0-11.86,0-11,6.8-17.8,17.7-17.81q34.62,0,69.24,0c11.13,0,17.83,6.8,17.87,18,0,3.93,0,7.86,0,11.74ZM604.74,485c.1,1.69.12,2.94.26,4.17q3.56,30.06,7.15,60.12c.64,5.33,0,6.32-5.51,7.55-3.23.72-5.51,2.7-6,5.94-.41,2.87-.09,5.84-.09,8.72h32.59V485Zm37.78,86.43H675.3c0-2.38.05-4.48,0-6.59-.13-4.73-2.4-7.29-7.11-8.11-4-.69-5.21-2.26-4.71-6.49,1.87-15.71,3.78-31.41,5.63-47.13.71-6,1.32-12,2-18.07H642.52Zm-9.3-95.79c0-12.85.58-25.56-.18-38.2-.64-10.58-10.14-18.37-20.59-18.49a20.84,20.84,0,0,0-21.12,17.9,44.33,44.33,0,0,0,.14,10c.77,9.54,1.7,19.06,2.58,28.76Zm48.46.07c.53-5.72,1-11,1.52-16.36s.87-10.69,1.44-16C686,430.62,677.23,419.7,665,419c-12.46-.72-22.49,8.84-22.58,21.64-.08,10.84,0,21.69,0,32.54a23.46,23.46,0,0,0,.26,2.55Zm-72.08-215c-1.29,13.28,2,24.64,14.3,31.6,10.22,5.8,20.64,5.25,30.29-1.47,10.69-7.44,13.2-18.32,11.88-30.74A33.31,33.31,0,0,1,644.55,249c-4.53,5-9.57,8.8-15.85,9.91S616.16,260.17,609.6,260.75Zm71.57,140.5H594.75V415.3c.78-.42,1.21-.63,1.63-.87,13.47-7.63,27.72-5.44,38.37,5.92,2.18,2.32,4.18,2.22,6.49-.24,7.88-8.38,17.48-11.78,28.78-9.33,3.79.82,7.36,2.66,11.15,4.07ZM570,359.15c-1.47,11.81-2.94,23.29-4.29,34.79-.36,3.1.77,5.87,3.66,7.2,5.17,2.38,10.51,4.39,15.88,6.6V359.15Zm120.51,48.59c5.32-2.14,10.3-4.05,15.21-6.14a6.73,6.73,0,0,0,4.42-7.15c-1.29-11.74-2.83-23.44-4.28-35.22H690.46ZM504.77,565.45h26.49V544.94H504.77ZM771,545H744.43v20.49H771Zm-81.5-127.1c1.4,6.85,2.79,13.62,4.25,20.74,5.71-6,7.23-16.15,3.8-23.94ZM582.1,438.66c1.46-7.33,2.8-14,4.16-20.82l-8-3.19C574.79,422.43,576.31,432.6,582.1,438.66Z" transform="translate(-447.68 -200.3)" fill="#19a5c4"/><path d="M510.58,420.39A16.46,16.46,0,1,1,494.18,404,16.53,16.53,0,0,1,510.58,420.39Zm-9,0a7.47,7.47,0,1,0-7.64,7.49A7.54,7.54,0,0,0,501.58,420.42Z" transform="translate(-447.68 -200.3)" fill="#19a5c4"/><path d="M798.08,420.52A16.45,16.45,0,1,1,781.81,404,16.54,16.54,0,0,1,798.08,420.52ZM781.51,413a7.47,7.47,0,1,0,7.57,7.17A7.54,7.54,0,0,0,781.51,413Z" transform="translate(-447.68 -200.3)" fill="#19a5c4"/><path d="M637.91,344.08a16.45,16.45,0,1,1-16.49,16.33A16.52,16.52,0,0,1,637.91,344.08Zm7.42,16.27a7.46,7.46,0,1,0-7.48,7.65A7.53,7.53,0,0,0,645.33,360.35Z" transform="translate(-447.68 -200.3)" fill="#19a5c4"/></svg>